<svg width="54" height="54" viewBox="0 0 54 54" fill="none" xmlns="http://www.w3.org/2000/svg">
    <circle cx="27" cy="27" r="27" fill="#D6F2F2"/>
    <path d="M34.7 24.4567C34.0933 24.2117 33.3583 24.165 32.9033 24.6317L24.655 32.8683C24.2 33.3233 24.235 34.07 24.48 34.665C24.62 35.015 24.6667 35.365 24.6667 35.75C24.6667 36.5236 24.3594 37.2654 23.8124 37.8124C23.2654 38.3594 22.5235 38.6667 21.75 38.6667C20.9765 38.6667 20.2346 38.3594 19.6876 37.8124C19.1406 37.2654 18.8333 36.5236 18.8333 35.75C18.8333 35.4467 18.5533 35.1667 18.25 35.1667C17.8215 35.1617 17.3995 35.0624 17.0137 34.8758C16.628 34.6892 16.2881 34.42 16.0183 34.0871C15.7484 33.7543 15.5552 33.3661 15.4524 32.9502C15.3495 32.5342 15.3396 32.1007 15.4233 31.6805C15.507 31.2603 15.6823 30.8636 15.9366 30.5188C16.191 30.174 16.5182 29.8895 16.895 29.6854C17.2717 29.4814 17.6889 29.3629 18.1166 29.3383C18.5444 29.3138 18.9723 29.3838 19.37 29.5433C19.9533 29.7883 20.7 29.835 21.155 29.3683L29.4033 21.1317C29.8583 20.6767 29.8233 19.93 29.5783 19.335C29.4383 18.985 29.3333 18.635 29.3333 18.25C29.3333 17.4765 29.6406 16.7346 30.1876 16.1876C30.7346 15.6406 31.4765 15.3333 32.25 15.3333C33.0235 15.3333 33.7654 15.6406 34.3124 16.1876C34.8594 16.7346 35.1667 17.4765 35.1667 18.25C35.1783 18.5533 35.4467 18.8217 35.75 18.8333C36.1814 18.828 36.6086 18.9184 37.0008 19.0981C37.3931 19.2778 37.7405 19.5422 38.0182 19.8724C38.2959 20.2026 38.4969 20.5902 38.6067 21.0074C38.7166 21.4247 38.7324 21.861 38.6532 22.2851C38.5741 22.7092 38.4018 23.1105 38.1488 23.46C37.8958 23.8094 37.5685 24.0985 37.1904 24.3062C36.8122 24.5139 36.3927 24.6351 35.9621 24.6611C35.5314 24.6872 35.1004 24.6173 34.7 24.4567V24.4567Z" stroke="#357A7B" stroke-width="2" stroke-linecap="round" stroke-linejoin="round"/>
</svg>