<svg width="54" height="54" viewBox="0 0 54 54" fill="none" xmlns="http://www.w3.org/2000/svg">
    <circle cx="27" cy="27" r="27" fill="#E2F7F8"/>
    <path d="M26.9996 14.897C28.6827 14.897 30.2564 15.2159 31.7223 15.853C33.1924 16.4934 34.4695 17.3571 35.5562 18.4429C36.5066 19.394 37.2869 20.4913 37.8961 21.7358L38.1461 22.2778C38.7832 23.7435 39.1031 25.3165 39.1031 26.9995C39.1031 28.6826 38.7832 30.2554 38.1461 31.7202C37.5057 33.1914 36.643 34.4693 35.5572 35.5552C34.4704 36.642 33.1925 37.5056 31.7223 38.146C30.2564 38.7832 28.6827 39.103 26.9996 39.103C25.3167 39.103 23.7445 38.783 22.2799 38.146C20.8086 37.5056 19.5308 36.642 18.4449 35.5552C17.3581 34.4692 16.4935 33.1915 15.8531 31.7202C15.2161 30.2555 14.8971 28.6825 14.8971 26.9995C14.8971 25.4218 15.1779 23.9408 15.7379 22.5542L15.8531 22.2778C16.4935 20.8074 17.358 19.5298 18.4449 18.4429C19.5308 17.3571 20.8087 16.4934 22.2799 15.853L22.2789 15.8521C23.7436 15.215 25.3167 14.897 26.9996 14.897ZM26.5885 17.1421C26.4229 17.1421 26.2586 17.1694 26.0973 17.2231L26.0416 17.2427L25.9996 17.2837C25.8373 17.446 25.7209 17.6311 25.6617 17.8384C25.609 18.0228 25.5836 18.2175 25.5836 18.4214C25.5836 18.9662 25.7744 19.4365 26.1539 19.8159C26.5341 20.1959 27.0046 20.3872 27.5494 20.3872C27.7833 20.3872 28.0038 20.3479 28.2076 20.2661C28.3504 20.2092 28.4963 20.1812 28.6471 20.1812C28.8497 20.1812 29.0104 20.2533 29.1461 20.4058C29.2885 20.566 29.3579 20.7475 29.358 20.9604C29.358 21.1845 29.3056 21.3456 29.2213 21.4614C29.1584 21.5476 29.0678 21.6221 28.94 21.6802L28.7984 21.7329C28.3227 21.877 27.9072 21.9458 27.5494 21.9458C26.5878 21.9458 25.7642 21.602 25.067 20.9048C24.3688 20.2066 24.025 19.3829 24.025 18.4214V18.2153C24.025 18.1706 24.0328 18.0973 24.0543 17.9897L24.1412 17.5552L23.7242 17.7056C21.779 18.4087 20.1942 19.5949 18.9752 21.2593C17.7528 22.9282 17.1422 24.8446 17.1422 26.9995C17.1422 29.7194 18.1062 32.0485 20.0289 33.9712C21.9515 35.8938 24.2799 36.8578 26.9996 36.8579C29.7195 36.8579 32.0486 35.8939 33.9713 33.9712C35.894 32.0485 36.858 29.7194 36.858 26.9995C36.8579 24.2798 35.8938 21.9514 33.9713 20.0288C32.0486 18.1061 29.7195 17.1421 26.9996 17.1421H26.5885ZM32.7857 29.9946C32.3139 30.9542 31.6466 31.7501 30.7799 32.3843L30.5826 32.5239C29.5152 33.2497 28.323 33.6128 26.9996 33.6128C25.6763 33.6127 24.4849 33.2497 23.4185 32.5239C22.4545 31.8682 21.7205 31.0258 21.2135 29.9946H32.7857ZM23.5689 23.4751C23.9845 23.4752 24.326 23.6162 24.609 23.8999L24.6099 23.9009C24.8936 24.1839 25.0347 24.5254 25.0348 24.9409C25.0348 25.3567 24.8938 25.6988 24.6099 25.9819H24.609C24.326 26.2657 23.9846 26.4067 23.5689 26.4067C23.2051 26.4067 22.898 26.2987 22.6373 26.0815L22.5279 25.9819C22.244 25.6988 22.1031 25.3567 22.1031 24.9409C22.1032 24.5252 22.2441 24.1839 22.5279 23.9009V23.8999C22.811 23.616 23.1532 23.4751 23.5689 23.4751ZM30.4312 23.4751C30.847 23.4751 31.1892 23.616 31.4723 23.8999V23.9009C31.756 24.1839 31.897 24.5253 31.8971 24.9409C31.8971 25.3047 31.789 25.6118 31.5719 25.8726L31.4723 25.9819C31.1892 26.2658 30.847 26.4067 30.4312 26.4067C30.0156 26.4067 29.6742 26.2657 29.3912 25.9819H29.3902C29.1064 25.6988 28.9654 25.3567 28.9654 24.9409C28.9655 24.5253 29.1065 24.1839 29.3902 23.9009L29.3912 23.8999C29.6742 23.6162 30.0157 23.4751 30.4312 23.4751Z" fill="#357A7B" stroke="#DCF9F9" stroke-width="0.5"/>
</svg>