<svg width="16" height="16" viewBox="0 0 16 16" fill="none" xmlns="http://www.w3.org/2000/svg">
    <g clip-path="url(#clip0_1_5571)">
        <path d="M12.6667 4.66667H3.33333C2.59695 4.66667 2 5.26363 2 6.00001V12C2 12.7364 2.59695 13.3333 3.33333 13.3333H12.6667C13.403 13.3333 14 12.7364 14 12V6.00001C14 5.26363 13.403 4.66667 12.6667 4.66667Z" stroke="#9ED4D6" stroke-width="1.5" stroke-linecap="round" stroke-linejoin="round"/>
        <path d="M5.33334 4.66667V3.33333C5.33334 2.97971 5.47382 2.64057 5.72387 2.39052C5.97392 2.14048 6.31305 2 6.66668 2H9.33334C9.68697 2 10.0261 2.14048 10.2762 2.39052C10.5262 2.64057 10.6667 2.97971 10.6667 3.33333V4.66667" stroke="#9ED4D6" stroke-width="1.5" stroke-linecap="round" stroke-linejoin="round"/>
        <path d="M8 8V8.00667" stroke="#9ED4D6" stroke-width="1.5" stroke-linecap="round" stroke-linejoin="round"/>
        <path d="M2 8.66667C3.86105 9.60446 5.91602 10.093 8 10.093C10.084 10.093 12.1389 9.60446 14 8.66667" stroke="#9ED4D6" stroke-width="1.5" stroke-linecap="round" stroke-linejoin="round"/>
    </g>
    <defs>
        <clipPath id="clip0_1_5571">
            <rect width="16" height="16" fill="white"/>
        </clipPath>
    </defs>
</svg>