<svg width="18" height="19" viewBox="0 0 18 19" fill="none" xmlns="http://www.w3.org/2000/svg">
    <path d="M12.72 4.98218C14.22 6.02468 15.255 7.68218 15.465 9.59468" stroke="#424242" stroke-width="1.5" stroke-linecap="round" stroke-linejoin="round"/>
    <path d="M2.61749 9.63218C2.81249 7.72718 3.83249 6.06968 5.31749 5.01968" stroke="#424242" stroke-width="1.5" stroke-linecap="round" stroke-linejoin="round"/>
    <path d="M6.14249 16.0597C7.01249 16.5022 8.00249 16.7497 9.04499 16.7497C10.05 16.7497 10.995 16.5247 11.8425 16.1122" stroke="#424242" stroke-width="1.5" stroke-linecap="round" stroke-linejoin="round"/>
    <path d="M9.04499 6.12968C10.1965 6.12968 11.13 5.19619 11.13 4.04468C11.13 2.89316 10.1965 1.95968 9.04499 1.95968C7.89348 1.95968 6.95999 2.89316 6.95999 4.04468C6.95999 5.19619 7.89348 6.12968 9.04499 6.12968Z" stroke="#424242" stroke-width="1.5" stroke-linecap="round" stroke-linejoin="round"/>
    <path d="M3.62251 15.2947C4.77402 15.2947 5.70751 14.3612 5.70751 13.2097C5.70751 12.0582 4.77402 11.1247 3.62251 11.1247C2.47099 11.1247 1.53751 12.0582 1.53751 13.2097C1.53751 14.3612 2.47099 15.2947 3.62251 15.2947Z" stroke="#424242" stroke-width="1.5" stroke-linecap="round" stroke-linejoin="round"/>
    <path d="M14.3775 15.2947C15.529 15.2947 16.4625 14.3612 16.4625 13.2097C16.4625 12.0582 15.529 11.1247 14.3775 11.1247C13.226 11.1247 12.2925 12.0582 12.2925 13.2097C12.2925 14.3612 13.226 15.2947 14.3775 15.2947Z" stroke="#424242" stroke-width="1.5" stroke-linecap="round" stroke-linejoin="round"/>
</svg>