<svg width="54" height="54" viewBox="0 0 54 54" fill="none" xmlns="http://www.w3.org/2000/svg">
    <circle cx="27" cy="27" r="27" fill="#D6F2F2"/>
    <path d="M27.875 15.625C27.875 15.3929 27.7828 15.1704 27.6187 15.0063C27.4546 14.8422 27.2321 14.75 27 14.75C26.7679 14.75 26.5454 14.8422 26.3813 15.0063C26.2172 15.1704 26.125 15.3929 26.125 15.625V24.8003L25.25 25.425V21.26C25.25 19.5975 23.9025 18.25 22.24 18.25C21.323 18.25 20.4498 18.7225 19.7148 19.286C18.9605 19.867 18.2325 20.6388 17.5868 21.4368C16.2988 23.0258 15.2295 24.8423 14.8218 25.7768C14.5138 26.4855 14.134 27.8068 13.8488 29.296C13.56 30.7958 13.3535 32.5458 13.427 34.1243C13.497 35.6415 13.8348 37.2568 14.8935 38.2018C16.066 39.2518 17.732 39.1748 19.6903 38.1948L22.8315 36.625C23.5582 36.2617 24.1694 35.7031 24.5965 35.012C25.0237 34.3209 25.25 33.5245 25.25 32.712V31.375C25.25 31.1429 25.1578 30.9204 24.9937 30.7563C24.8296 30.5922 24.6071 30.5 24.375 30.5C24.1429 30.5 23.9204 30.5922 23.7563 30.7563C23.5922 30.9204 23.5 31.1429 23.5 31.375V32.712C23.5 33.1998 23.3641 33.6779 23.1075 34.0927C22.851 34.5075 22.4839 34.8426 22.0475 35.0605L18.908 36.6303C17.1965 37.486 16.4318 37.2305 16.059 36.8963C15.569 36.4588 15.2418 35.4945 15.1753 34.0438C15.1105 32.6525 15.2943 31.0513 15.5673 29.625C15.842 28.19 16.192 27.0158 16.4265 26.475C16.759 25.7085 17.739 24.025 18.9465 22.5375C19.545 21.799 20.1768 21.1393 20.7823 20.6738C21.4088 20.1908 21.9005 20 22.24 20C22.5742 20 22.8947 20.1328 23.131 20.369C23.3673 20.6053 23.5 20.9258 23.5 21.26V26.6745L20.3675 28.9145C20.1918 29.054 20.0764 29.2555 20.0451 29.4776C20.0138 29.6997 20.069 29.9254 20.1992 30.108C20.3295 30.2906 20.5249 30.4162 20.7451 30.4588C20.9653 30.5015 21.1935 30.458 21.3825 30.3373L27 26.3245L32.6175 30.3373C32.7108 30.4083 32.8174 30.4598 32.931 30.4889C33.0446 30.5179 33.1628 30.5238 33.2787 30.5062C33.3947 30.4886 33.5059 30.4479 33.6057 30.3866C33.7056 30.3252 33.7922 30.2443 33.8602 30.1488C33.9282 30.0534 33.9764 29.9452 34.0018 29.8307C34.0272 29.7163 34.0293 29.5979 34.0081 29.4826C33.9869 29.3673 33.9427 29.2574 33.8782 29.1595C33.8136 29.0616 33.7301 28.9777 33.6325 28.9128L30.5 26.6745V21.26C30.5 20.9258 30.6328 20.6053 30.869 20.369C31.1053 20.1328 31.4258 20 31.76 20C32.0995 20 32.5913 20.1925 33.2178 20.6738C33.8233 21.1393 34.4533 21.799 35.0553 22.5393C36.2593 24.0268 37.2393 25.7085 37.5735 26.475C37.808 27.0158 38.158 28.19 38.4328 29.625C38.7058 31.0495 38.8878 32.6525 38.8248 34.0438C38.7583 35.4945 38.4328 36.4588 37.941 36.8963C37.5683 37.2288 36.8035 37.486 35.092 36.6303L31.9508 35.0605C31.5147 34.8424 31.148 34.5072 30.8917 34.0923C30.6355 33.6775 30.4999 33.1996 30.5 32.712V31.375C30.5 31.1429 30.4078 30.9204 30.2437 30.7563C30.0796 30.5922 29.8571 30.5 29.625 30.5C29.3929 30.5 29.1704 30.5922 29.0063 30.7563C28.8422 30.9204 28.75 31.1429 28.75 31.375V32.712C28.75 33.5245 28.9763 34.3209 29.4035 35.012C29.8306 35.7031 30.4418 36.2617 31.1685 36.625L34.3098 38.1948C36.2698 39.1748 37.9323 39.25 39.1065 38.2018C40.1653 37.2568 40.503 35.6415 40.573 34.1243C40.6465 32.5458 40.44 30.7958 40.153 29.296C39.866 27.805 39.488 26.4855 39.1765 25.775C38.7705 24.8423 37.7013 23.0258 36.4133 21.4368C35.7658 20.6388 35.0395 19.867 34.2853 19.286C33.5503 18.7225 32.677 18.25 31.76 18.25C30.0975 18.25 28.75 19.5975 28.75 21.26V25.425L27.875 24.8003V15.625Z" fill="#357A7B"/>
</svg>