<svg width="54" height="54" viewBox="0 0 54 54" fill="none" xmlns="http://www.w3.org/2000/svg">
    <circle cx="27" cy="27" r="27" fill="#E2F7F8"/>
    <path d="M15.3333 22.3333H25.0259H38.6667M15.3333 25.8333H38.6667M20 30.5C20 31.4665 19.2165 32.25 18.25 32.25C17.2835 32.25 16.5 31.4665 16.5 30.5C16.5 29.5335 17.2835 28.75 18.25 28.75C19.2165 28.75 20 29.5335 20 30.5ZM28.75 30.5C28.75 31.4665 27.9665 32.25 27 32.25C26.0335 32.25 25.25 31.4665 25.25 30.5C25.25 29.5335 26.0335 28.75 27 28.75C27.9665 28.75 28.75 29.5335 28.75 30.5ZM37.5 30.5C37.5 31.4665 36.7165 32.25 35.75 32.25C34.7835 32.25 34 31.4665 34 30.5C34 29.5335 34.7835 28.75 35.75 28.75C36.7165 28.75 37.5 29.5335 37.5 30.5ZM24.6667 35.1667C24.6667 36.1332 23.8832 36.9167 22.9167 36.9167C21.9502 36.9167 21.1667 36.1332 21.1667 35.1667C21.1667 34.2002 21.9502 33.4167 22.9167 33.4167C23.8832 33.4167 24.6667 34.2002 24.6667 35.1667ZM32.8333 35.1667C32.8333 36.1332 32.0498 36.9167 31.0833 36.9167C30.1168 36.9167 29.3333 36.1332 29.3333 35.1667C29.3333 34.2002 30.1168 33.4167 31.0833 33.4167C32.0498 33.4167 32.8333 34.2002 32.8333 35.1667ZM28.75 18.25C28.75 19.2165 27.9665 20 27 20C26.0335 20 25.25 19.2165 25.25 18.25C25.25 17.2835 26.0335 16.5 27 16.5C27.9665 16.5 28.75 17.2835 28.75 18.25Z" stroke="#357A7B" stroke-width="2"/>
</svg>