<svg width="18" height="19" viewBox="0 0 18 19" fill="none" xmlns="http://www.w3.org/2000/svg">
    <path d="M10.2975 2.98718L11.6175 5.62718C11.7975 5.99468 12.2775 6.34718 12.6825 6.41468L15.075 6.81218C16.605 7.06718 16.965 8.17718 15.8625 9.27218L14.0025 11.1322C13.6875 11.4472 13.515 12.0547 13.6125 12.4897L14.145 14.7922C14.565 16.6147 13.5975 17.3197 11.985 16.3672L9.74249 15.0397C9.33749 14.7997 8.66999 14.7997 8.25749 15.0397L6.01499 16.3672C4.40999 17.3197 3.43499 16.6072 3.85499 14.7922L4.38749 12.4897C4.48499 12.0547 4.31249 11.4472 3.99749 11.1322L2.13749 9.27218C1.04249 8.17718 1.39499 7.06718 2.92499 6.81218L5.31749 6.41468C5.71499 6.34718 6.19499 5.99468 6.37499 5.62718L7.69499 2.98718C8.41499 1.55468 9.58499 1.55468 10.2975 2.98718Z" stroke="#424242" stroke-width="1.5" stroke-linecap="round" stroke-linejoin="round"/>
</svg>