<svg width="54" height="54" viewBox="0 0 54 54" fill="none" xmlns="http://www.w3.org/2000/svg">
    <circle cx="27" cy="27" r="27" fill="#E2F7F8"/>
    <path fill-rule="evenodd" clip-rule="evenodd" d="M15.9324 20.0024C16.0199 21.5721 16.4668 22.5439 17.1213 23.143C16.9574 23.2639 16.8299 23.4276 16.7528 23.6161C16.6758 23.8046 16.6521 24.0106 16.6843 24.2117C17.0186 26.3321 17.8533 30.8168 19.5643 35.8719C19.6314 36.0898 19.7665 36.2805 19.95 36.4159C20.1334 36.5513 20.3553 36.6244 20.5833 36.6244C20.8113 36.6244 21.0333 36.5513 21.2167 36.4159C21.4001 36.2805 21.5353 36.0898 21.6024 35.8719C23.3139 30.8168 24.1487 26.3321 24.4823 24.2117C24.5145 24.0106 24.4908 23.8046 24.4137 23.6161C24.3367 23.4276 24.2093 23.264 24.0454 23.143C24.6999 22.5439 25.1467 21.5721 25.2342 20.0024C25.2378 19.9262 25.2256 19.85 25.1985 19.7787C25.1714 19.7074 25.1299 19.6425 25.0766 19.5879C25.0233 19.5333 24.9594 19.4902 24.8888 19.4614C24.8181 19.4325 24.7424 19.4185 24.6661 19.4202C23.7164 19.4342 22.9622 19.4919 22.3736 19.6897C22.1303 19.0486 21.6403 18.4437 20.9018 17.8919C20.8098 17.8232 20.6981 17.7861 20.5833 17.7861C20.4685 17.7861 20.3568 17.8232 20.2648 17.8919C19.5328 18.4396 19.0439 19.0387 18.7995 19.6739C18.2278 19.5054 17.4794 19.4383 16.5023 19.4214C16.426 19.4194 16.3501 19.4333 16.2794 19.4619C16.2086 19.4906 16.1445 19.5335 16.0911 19.588C16.0376 19.6425 15.996 19.7074 15.9687 19.7787C15.9414 19.85 15.929 19.9261 15.9324 20.0024ZM21.6806 21.1533L21.2828 20.1033C21.1719 19.8122 20.9567 19.4849 20.5833 19.1408C20.2141 19.482 19.9988 19.8058 19.888 20.0939L19.5007 21.0973L18.4693 20.7928C18.1648 20.7029 17.7495 20.6434 17.1656 20.6114C17.3394 21.736 17.7559 22.2114 18.1363 22.457C18.6793 22.8088 19.4715 22.9155 20.5658 22.9167H20.6008C21.6957 22.9155 22.4873 22.8088 23.0304 22.457C23.4113 22.2114 23.8284 21.7354 24.0017 20.6079C23.4358 20.6376 23.0392 20.6965 22.7452 20.7951L21.6806 21.1533ZM17.8452 24.0834H23.3215C23.1547 25.1374 22.8642 26.7667 22.4057 28.75H20V29.9167H22.1263C21.7238 31.5395 21.2162 33.3484 20.5833 35.2425C20.3812 34.6367 20.1877 34.028 20.0029 33.4167H20.5833V32.25H19.6611C19.1696 30.5163 18.7419 28.7651 18.3789 27H20V25.8334H18.1491C18.0397 25.2515 17.9385 24.6681 17.8458 24.0834H17.8452Z" fill="#357A7B"/>
    <path d="M35.3078 29.3508C35.4579 29.3883 35.5869 29.4838 35.6665 29.6164C35.7462 29.749 35.7699 29.9078 35.7325 30.0578C35.5702 30.7263 35.2271 31.3372 34.7407 31.8237C34.2544 32.3101 33.6435 32.6534 32.9751 32.8158C32.9006 32.8351 32.823 32.8394 32.7468 32.8285C32.6706 32.8176 32.5973 32.7918 32.5312 32.7524C32.4651 32.7131 32.4073 32.6611 32.3614 32.5994C32.3154 32.5376 32.2821 32.4674 32.2634 32.3928C32.2447 32.3181 32.241 32.2405 32.2524 32.1644C32.2638 32.0883 32.2902 32.0152 32.33 31.9494C32.3698 31.8835 32.4222 31.8262 32.4843 31.7806C32.5464 31.7351 32.6168 31.7023 32.6916 31.6842C33.155 31.5731 33.5787 31.336 33.9157 30.999C34.2527 30.662 34.4898 30.2384 34.6008 29.7749C34.6384 29.625 34.734 29.4961 34.8666 29.4166C34.9991 29.3371 35.1578 29.3134 35.3078 29.3508Z" fill="#357A7B"/>
    <path fill-rule="evenodd" clip-rule="evenodd" d="M32.0458 25.2657C31.3995 23.7531 31.5115 22.1466 32.6624 20.9957L31.8376 20.1709C30.4784 21.5301 30.2428 23.3075 30.6983 24.9414C28.0296 23.7333 25.25 25.9546 25.25 29.3333C25.25 32.5551 28.1229 35.1666 31.6667 35.1666C35.2104 35.1666 38.0833 32.5551 38.0833 29.3333C38.0833 25.705 34.8779 23.4119 32.0458 25.2657ZM31.6667 27.0356L30.9375 26.4522C29.8543 25.5854 28.7862 25.6338 27.9777 26.1331C27.1225 26.6616 26.4167 27.7921 26.4167 29.3333C26.4167 31.8084 28.6602 34 31.6667 34C34.6732 34 36.9167 31.8084 36.9167 29.3333C36.9167 27.7921 36.2108 26.6616 35.3557 26.1331C34.5472 25.6338 33.4791 25.5854 32.3953 26.4528L31.6667 27.0361V27.0356Z" fill="#357A7B"/>
    <path d="M32.8333 23.4999C34.5833 23.4999 35.75 22.3333 35.75 20.5833C34 20.5833 32.8333 21.7499 32.8333 23.4999Z" fill="#357A7B"/>
</svg>