<svg width="54" height="54" viewBox="0 0 54 54" fill="none" xmlns="http://www.w3.org/2000/svg">
    <circle cx="27" cy="27" r="27" fill="#D6F2F2"/>
    <path d="M21.4815 24.6776C20.4971 23.467 19.5727 23.2072 18.7083 23.8979C17.4117 24.9341 17.0393 28.5457 18.0827 31.7301C19.1262 34.9145 21.1551 39.251 25.2509 39.251C29.3468 39.251 30.3157 34.888 31.9866 32.2501C33.6576 29.6122 34.5416 27.0673 32.9038 23.8979" stroke="#357A7B" stroke-width="2" stroke-linecap="round" stroke-linejoin="round"/>
    <path d="M19.4167 23.5216C18.4233 22.0084 17.6455 20.8346 17.0833 20.0002C16.24 18.7486 18.3965 17.131 19.4167 18.2314C20.0968 18.965 21.0003 20.0456 22.1272 21.473" stroke="#357A7B" stroke-width="2" stroke-linecap="round"/>
    <path d="M21.7638 27.9565C21.4811 24.4193 21.7111 22.1162 22.4536 21.047C23.5674 19.4433 25.6368 18.8352 27.5854 18.8352C28.7456 18.8352 29.8051 19.3293 30.764 20.3176" stroke="#357A7B" stroke-width="2" stroke-linecap="round" stroke-linejoin="round"/>
    <path d="M36.9168 20.3575C37.2584 21.5454 36.7005 22.6307 34.9826 22.8765C33.2646 23.1223 31.9766 23.9861 31.0476 24.7129C30.1187 25.4395 28.4573 27.6444 28.1294 28.7514C27.8014 29.8584 25.9268 28.8403 25.4233 28.3984C24.9198 27.9564 24.4249 26.9887 25.4233 25.9767C26.4217 24.9647 26.2057 24.7627 26.2057 23.7364C26.2057 22.7102 31.6668 19.3154 34.7425 19.0049C35.4262 18.965 36.5752 19.1696 36.9168 20.3575Z" stroke="#357A7B" stroke-width="2"/>
    <path d="M26.4212 15.3335V18.4034" stroke="#357A7B" stroke-width="2" stroke-linecap="round"/>
    <path d="M24.8455 19.2521C23.0851 17.0398 21.6657 15.8051 20.5873 15.5479" stroke="#357A7B" stroke-width="2" stroke-linecap="round"/>
    <path d="M22.9189 17.1003L23.4967 14.7276" stroke="#357A7B" stroke-width="2" stroke-linecap="round"/>
    <path d="M33.7741 19.2519C33.5861 19.8962 33.5861 20.5003 33.7741 21.0641C33.9621 21.628 34.3649 22.2321 34.9825 22.8764" stroke="#357A7B" stroke-width="2" stroke-linecap="round"/>
</svg>