<svg width="54" height="54" viewBox="0 0 54 54" fill="none" xmlns="http://www.w3.org/2000/svg">
    <circle cx="27" cy="27" r="27" fill="#D6F2F2"/>
    <path d="M20.6516 15.9167H21.1684C23.8903 16.3192 24.6282 17.8638 27 17.8638C29.3718 17.8638 30.1098 16.3192 32.8322 15.9167H33.125C33.8527 15.9167 34.5734 16.06 35.2457 16.3385C35.9181 16.617 36.529 17.0252 37.0436 17.5398C37.5581 18.0544 37.9663 18.6653 38.2448 19.3376C38.5233 20.01 38.6667 20.7306 38.6667 21.4583V21.8235C38.6667 23.5169 36.8642 25.4501 36.3333 27.2817C35.7704 29.2266 35.3848 30.8167 35.2717 32.4798C35.0063 36.3771 33.6774 38.0833 32.25 38.0833C30.1185 38.0833 28.2262 29.3479 27.0368 29.3479C25.8468 29.3479 23.4872 38.0833 21.75 38.0833C20.6901 38.0833 19.3175 37.4562 18.8018 32.4798C18.5965 30.5 18.25 29.2989 17.6667 27.2817C17.1533 25.5084 15.422 23.3897 15.3333 21.4881C15.2999 20.7689 15.4127 20.0503 15.6648 19.376C15.917 18.7016 16.3034 18.0854 16.8005 17.5646C17.2976 17.0438 17.8952 16.6292 18.5572 16.346C19.2191 16.0627 19.9316 15.9167 20.6516 15.9167Z" stroke="#357A7B" stroke-width="2" stroke-linecap="round" stroke-linejoin="round"/>
    <path d="M22.0312 20.2701L31.6673 23.3769M22.0312 23.3769L31.6673 20.2701" stroke="#357A7B" stroke-width="2" stroke-linecap="round" stroke-linejoin="round"/>
</svg>