<svg width="11" height="11" viewBox="0 0 11 11" fill="none" xmlns="http://www.w3.org/2000/svg">
    <g clip-path="url(#clip0_1_5056)">
        <path d="M3.04547 2.19849H2.61365C2.3846 2.19849 2.16493 2.28948 2.00297 2.45144C1.84101 2.6134 1.75002 2.83307 1.75002 3.06212V4.57349C1.75002 5.20338 2.00024 5.80747 2.44564 6.25287C2.89104 6.69826 3.49513 6.94849 4.12502 6.94849C4.7549 6.94849 5.359 6.69826 5.80439 6.25287C6.24979 5.80747 6.50002 5.20338 6.50002 4.57349V3.06212C6.50002 2.83307 6.40903 2.6134 6.24706 2.45144C6.0851 2.28948 5.86543 2.19849 5.63638 2.19849H5.20456" stroke="#4F81FF" stroke-width="1.5" stroke-linecap="round" stroke-linejoin="round"/>
        <path d="M3.9091 6.94853C3.9091 7.28877 3.97612 7.62569 4.10632 7.94003C4.23653 8.25437 4.42738 8.53999 4.66796 8.78058C4.90855 9.02117 5.19417 9.21201 5.50851 9.34222C5.82286 9.47242 6.15977 9.53944 6.50001 9.53944C6.84026 9.53944 7.17717 9.47242 7.49151 9.34222C7.80585 9.21201 8.09147 9.02117 8.33206 8.78058C8.57265 8.53999 8.76349 8.25437 8.8937 7.94003C9.02391 7.62569 9.09092 7.28877 9.09092 6.94853V5.65308" stroke="#4F81FF" stroke-width="1.5" stroke-linecap="round" stroke-linejoin="round"/>
        <path d="M5.20456 1.7666V2.63024V1.7666Z" fill="#4F81FF"/>
        <path d="M5.20456 1.7666V2.63024" stroke="#4F81FF" stroke-width="1.5" stroke-linecap="round" stroke-linejoin="round"/>
        <path d="M3.04547 1.7666V2.63024" stroke="#4F81FF" stroke-width="1.5" stroke-linecap="round" stroke-linejoin="round"/>
        <path d="M9.09092 5.65305C9.56789 5.65305 9.95455 5.26639 9.95455 4.78942C9.95455 4.31244 9.56789 3.92578 9.09092 3.92578C8.61394 3.92578 8.22728 4.31244 8.22728 4.78942C8.22728 5.26639 8.61394 5.65305 9.09092 5.65305Z" stroke="#4F81FF" stroke-width="1.5" stroke-linecap="round" stroke-linejoin="round"/>
    </g>
    <defs>
        <clipPath id="clip0_1_5056">
            <rect width="10.3636" height="10.3636" fill="white" transform="translate(0.454559 0.471191)"/>
        </clipPath>
    </defs>
</svg>